<svg id="Layer_1" data-name="Layer 1" xmlns="http://www.w3.org/2000/svg" viewBox="0 0 298.59 90.1"><title>qusino_logo</title><path d="M43.05,16.3H54.8V90.1H42V64a22,22,0,0,1-16.34,7.16C11.32,71.16,0,59.59,0,43.51S11.32,15.75,25.64,15.75a22.15,22.15,0,0,1,16.45,7.16ZM27,28.42c-8,0-14.53,5.84-14.53,15.09s6.52,15,14.53,15c8.22,0,14.85-5.84,14.85-15S35.25,28.42,27,28.42Z" fill="#302a36"/><path d="M61.32,16.3H74V45.38c0,9.15,3.85,13.11,10.9,13.11,9.08,0,14.31-8,14.31-8V16.3h12.82v54H100.85l-1.39-7.16a21.72,21.72,0,0,1-17.2,8c-12.18,0-20.94-9.58-20.94-22.58Z" fill="#302a36"/><path d="M160.24,55.3c0,9.58-7.47,15.86-19.76,15.86-12.93,0-21.58-8.81-21.9-19.83H131.4c.53,4.41,4.27,6.94,9.29,6.94,4,0,6.73-1.32,6.73-3.74,0-6-28.09-1.55-28.09-21.92,0-9.26,8-16.86,20.3-16.86,11.85,0,19.76,8,20.08,19.94H146.78c-.74-4.63-3.41-7-7.58-7S132,30.18,132,32.94C132,40.87,160.24,36,160.24,55.3Z" fill="#302a36"/><path d="M173.28,0a7.13,7.13,0,0,1,6.94,7.27,7.13,7.13,0,0,1-6.94,7.27,7.22,7.22,0,0,1-7.05-7.27A7.22,7.22,0,0,1,173.28,0Zm-6.41,16.3h12.82v54H166.87Z"/><path d="M238,70.28H225.3V41.64c0-9.25-3.84-13.22-10.89-13.22-9.08,0-14.32,7.71-14.32,7.71V70.28H187.27v-54H199l1.07,7.16a21.38,21.38,0,0,1,17-7.71c12.18,0,20.94,9.59,20.94,22.58Z"/><path d="M271.67,15.75c14.74,0,26.92,11.57,26.92,27.76s-12.18,27.65-26.92,27.65c-15,0-27-11.57-27-27.65S256.71,15.75,271.67,15.75Zm0,42.52c7.69,0,14.1-5.73,14.1-14.87s-6.41-14.76-14.1-14.76c-7.91,0-14.32,5.73-14.32,14.76S263.76,58.27,271.67,58.27Z"/></svg>