<svg id="Layer_1" data-name="Layer 1" xmlns="http://www.w3.org/2000/svg" viewBox="0 0 444 408"><title>qusino_logo</title><rect x="-1" width="445" height="408" fill="#161616"/><path d="M156.08,185.85h7.31v45.92h-8V215.52A13.71,13.71,0,0,1,145.24,220c-8.9,0-16-7.2-16-17.2s7.05-17.28,16-17.28A13.75,13.75,0,0,1,155.48,190Zm-10,7.54c-5,0-9,3.63-9,9.39s4.05,9.32,9,9.32a9.36,9.36,0,0,0,0-18.71Z" fill="#23ffff"/><path d="M167.45,185.85h7.9v18.09c0,5.69,2.4,8.16,6.78,8.16,5.65,0,8.91-5,8.91-5V185.85h8v33.58h-7l-.87-4.46a13.49,13.49,0,0,1-10.7,5c-7.57,0-13-6-13-14Z" fill="#23ffff"/><path d="M229,210.11c0,6-4.65,9.87-12.29,9.87-8,0-13.43-5.49-13.63-12.34h8c.33,2.74,2.66,4.32,5.78,4.32,2.46,0,4.19-.82,4.19-2.33,0-3.7-17.48-1-17.48-13.64,0-5.76,5-10.49,12.63-10.49,7.37,0,12.29,5,12.49,12.41h-8c-.47-2.88-2.13-4.39-4.72-4.39s-4.45,1-4.45,2.68C211.45,201.13,229,198.11,229,210.11Z" fill="#23ffff"/><path d="M237.1,175.7a4.53,4.53,0,0,1,0,9.05,4.53,4.53,0,0,1,0-9.05Zm-4,10.15h8v33.58h-8Z" fill="#fef8e8"/><path d="M277.38,219.43h-7.91V201.61c0-5.76-2.39-8.22-6.78-8.22-5.65,0-8.9,4.79-8.9,4.79v21.25h-8V185.85h7.31l.67,4.45a13.3,13.3,0,0,1,10.57-4.8c7.57,0,13,6,13,14.05Z" fill="#fef8e8"/><path d="M298.32,185.5c9.17,0,16.75,7.2,16.75,17.28S307.49,220,298.32,220s-16.82-7.2-16.82-17.2S289,185.5,298.32,185.5Zm0,26.46c4.79,0,8.77-3.56,8.77-9.25s-4-9.19-8.77-9.19-8.91,3.57-8.91,9.19S293.4,212,298.32,212Z" fill="#fef8e8"/></svg>